<svg aria-hidden="true" style="position: absolute; width: 0; height: 0; overflow: hidden;" version="1.1" xmlns="http://www.w3.org/2000/svg" xmlns:xlink="http://www.w3.org/1999/xlink">
<defs>
<symbol id="crown" viewBox="0 0 32 32">
<path d="M29.319 8.4c-1.48 0-2.681 1.2-2.681 2.681 0 0.705 0.278 1.341 0.723 1.819l-4.805 4.748-5.863-9.048c1.143-0.308 1.987-1.34 1.987-2.579 0-1.479-1.2-2.68-2.681-2.68s-2.681 1.2-2.681 2.68c0 1.239 0.845 2.271 1.987 2.579l-5.863 9.048-4.805-4.748c0.444-0.479 0.723-1.114 0.723-1.819 0-1.48-1.2-2.681-2.681-2.681s-2.681 1.2-2.681 2.681 1.2 2.681 2.681 2.681v14.896h26.639v-14.896c1.48 0 2.681-1.2 2.681-2.681s-1.2-2.681-2.681-2.681z"></path>
</symbol>
<symbol id="star" viewBox="0 0 32 32">
<path  d="M15.056 4.411c-0.525 0.686-1.118 1.743-1.978 3.287l-0.437 0.784c-0.026 0.047-0.052 0.094-0.078 0.14-0.401 0.722-0.739 1.331-1.285 1.745-0.551 0.418-1.223 0.569-2.004 0.745-0.050 0.011-0.101 0.023-0.152 0.034l-0.848 0.192c-1.674 0.379-2.812 0.639-3.592 0.947-0.761 0.3-0.922 0.546-0.983 0.743-0.065 0.208-0.067 0.526 0.388 1.248 0.462 0.734 1.241 1.649 2.38 2.981l0.578 0.676c0.034 0.039 0.067 0.078 0.1 0.117 0.537 0.627 0.985 1.149 1.191 1.81 0.204 0.657 0.137 1.347 0.054 2.184-0.005 0.051-0.010 0.103-0.015 0.156l-0.087 0.902c-0.172 1.776-0.288 2.999-0.249 3.88 0.039 0.879 0.225 1.123 0.373 1.235 0.131 0.1 0.374 0.21 1.165-0.017 0.804-0.23 1.872-0.719 3.439-1.441l0.794-0.366c0.049-0.023 0.097-0.045 0.145-0.067 0.726-0.336 1.357-0.627 2.044-0.627s1.318 0.291 2.044 0.627c0.048 0.022 0.097 0.045 0.145 0.067l0.794 0.366c1.567 0.722 2.636 1.21 3.439 1.441 0.791 0.227 1.034 0.116 1.165 0.017 0.148-0.112 0.333-0.355 0.373-1.235 0.039-0.881-0.077-2.104-0.249-3.88l-0.087-0.902c-0.005-0.053-0.010-0.104-0.015-0.156-0.082-0.837-0.15-1.527 0.055-2.184 0.205-0.661 0.654-1.183 1.191-1.81 0.033-0.038 0.066-0.077 0.1-0.117l0.578-0.676c1.139-1.332 1.918-2.247 2.38-2.981 0.455-0.723 0.453-1.041 0.388-1.248-0.061-0.197-0.222-0.443-0.983-0.743-0.78-0.307-1.919-0.568-3.592-0.947l-0.849-0.192c-0.051-0.012-0.102-0.023-0.152-0.034-0.781-0.175-1.453-0.326-2.004-0.745-0.545-0.414-0.884-1.023-1.285-1.745-0.026-0.046-0.052-0.093-0.078-0.14l-0.437-0.784c-0.861-1.544-1.453-2.602-1.978-3.287s-0.792-0.744-0.944-0.744c-0.152 0-0.42 0.059-0.944 0.744zM13.468 3.195c0.635-0.83 1.421-1.528 2.532-1.528s1.896 0.698 2.532 1.528c0.625 0.815 1.287 2.004 2.096 3.456l0.478 0.858c0.523 0.939 0.657 1.138 0.825 1.266 0.162 0.123 0.37 0.191 1.388 0.421l0.933 0.211c1.567 0.355 2.859 0.647 3.799 1.017 0.976 0.385 1.831 0.952 2.159 2.009 0.325 1.047-0.040 2.010-0.606 2.908-0.549 0.873-1.427 1.899-2.499 3.152l-0.633 0.74c-0.689 0.806-0.833 1.003-0.901 1.221-0.069 0.222-0.063 0.478 0.042 1.553l0.095 0.984c0.162 1.675 0.295 3.040 0.248 4.081-0.047 1.059-0.288 2.075-1.161 2.739-0.89 0.676-1.926 0.599-2.925 0.313-0.969-0.278-2.178-0.834-3.645-1.51l-0.874-0.403c-0.957-0.44-1.161-0.511-1.353-0.511s-0.397 0.071-1.353 0.511l-0.874 0.403c-1.467 0.676-2.676 1.232-3.645 1.51-1 0.286-2.035 0.363-2.925-0.313-0.874-0.663-1.114-1.68-1.161-2.739-0.046-1.040 0.086-2.406 0.248-4.081l0.095-0.984c0.104-1.075 0.111-1.331 0.042-1.553-0.068-0.218-0.212-0.415-0.901-1.221l-0.633-0.74c-1.072-1.253-1.949-2.279-2.499-3.152-0.565-0.898-0.931-1.861-0.606-2.908 0.329-1.058 1.183-1.625 2.159-2.009 0.94-0.371 2.232-0.663 3.799-1.017l0.933-0.211c1.018-0.23 1.226-0.299 1.388-0.421 0.168-0.127 0.302-0.327 0.825-1.266l0.478-0.858c0.809-1.452 1.472-2.64 2.096-3.456z"></path>
</symbol>
<symbol id="favorite" viewBox="0 0 32 32">
<path d="M16 30.933l-0.8-0.667c-3.6-2.667-15.2-12.267-15.2-20.533 0-4.667 3.867-8.4 8.667-8.4 2.933 0 5.733 1.467 7.333 3.867v0 0c1.6-2.4 4.4-3.867 7.333-3.867 4.8 0 8.667 3.733 8.667 8.4 0 8.4-11.6 17.867-15.2 20.667l-0.8 0.533zM8.667 3.867c-3.333 0-6 2.533-6 5.733 0 5.467 6.8 12.667 13.333 17.867 6.533-5.2 13.333-12.4 13.333-17.867 0-3.2-2.667-5.733-6-5.733-2.133 0-4 1.067-5.067 2.667l-2.267 3.6-2.267-3.467c-1.067-1.733-2.933-2.8-5.067-2.8z"></path>
</symbol>
<symbol id="playing" viewBox="0 0 32 32">
<path d="M31.143 0.428h-5.64c-0.473 0-0.857 0.384-0.857 0.857v1.417h-17.293v-1.417c0-0.473-0.383-0.857-0.857-0.857h-5.64c-0.473 0-0.857 0.384-0.857 0.857v29.43c0 0.473 0.383 0.857 0.857 0.857h5.64c0.473 0 0.857-0.384 0.857-0.857v-1.416h17.293v1.416c0 0.473 0.383 0.857 0.857 0.857h5.64c0.473 0 0.857-0.384 0.857-0.857v-29.43c0-0.473-0.383-0.857-0.857-0.857zM5.476 26.39h-3.598v-3.598h3.598v3.598zM5.476 17.799h-3.598v-3.598h3.598v3.598zM5.476 9.207h-3.598v-3.598h3.598v3.598zM24.647 25.737h-17.293v-19.474h17.293v19.474zM30.122 26.39h-3.598v-3.598h3.598v3.598zM30.122 17.799h-3.598v-3.598h3.598v3.598zM30.122 9.207h-3.598v-3.598h3.598v3.598z"></path>
<path d="M16 21.884c3.25 0 5.884-2.634 5.884-5.884s-2.634-5.884-5.884-5.884-5.884 2.634-5.884 5.884 2.635 5.884 5.884 5.884zM14.338 13.162c0-0.145 0.082-0.277 0.211-0.343s0.284-0.052 0.401 0.034l3.856 2.838c0.098 0.072 0.156 0.187 0.156 0.309s-0.058 0.237-0.156 0.309l-3.856 2.838c-0.067 0.049-0.147 0.075-0.228 0.075-0.059 0-0.118-0.014-0.173-0.041-0.129-0.065-0.211-0.198-0.211-0.343v-5.676z"></path>
</symbol>
<symbol id="upcoming" viewBox="0 0 32 32">
<path d="M30.519 31.098l-3.183-3.33c0.931-1.023 1.504-2.378 1.504-3.867 0-3.175-2.583-5.758-5.758-5.758s-5.758 2.583-5.758 5.758 2.582 5.757 5.757 5.757c1.302 0 2.5-0.439 3.466-1.171l3.201 3.348c0.105 0.109 0.245 0.165 0.386 0.165 0.133 0 0.265-0.049 0.369-0.148 0.213-0.204 0.221-0.541 0.017-0.754zM23.081 28.592c-2.587 0-4.691-2.105-4.691-4.691s2.105-4.691 4.691-4.691 4.691 2.105 4.691 4.691-2.105 4.691-4.691 4.691z"></path>
<path d="M15.733 11.2h-10.667v15.467h10.667v-9.6h9.6v-5.867h-9.6zM9.867 25.6h-3.733v-3.733h3.733v3.733zM9.867 20.8h-3.733v-3.733h3.733v3.733zM9.867 16h-3.733v-3.733h3.733v3.733zM14.667 25.6h-3.733v-3.733h3.733v3.733zM14.667 20.8h-3.733v-3.733h3.733v3.733zM14.667 16h-3.733v-3.733h3.733v3.733zM19.467 16h-3.733v-3.733h3.733v3.733zM20.533 12.267h3.733v3.733h-3.733v-3.733z"></path>
<path d="M16.8 29.333h-14.4v-20.8h25.6v7.467c0 0.295 0.238 0.533 0.533 0.533s0.533-0.238 0.533-0.533v-13.333c0-0.295-0.238-0.533-0.533-0.533h-2.667v-1.6c0-0.295-0.238-0.533-0.533-0.533h-3.733c-0.295 0-0.533 0.238-0.533 0.533v1.6h-11.733v-1.6c0-0.295-0.238-0.533-0.533-0.533h-3.733c-0.295 0-0.533 0.238-0.533 0.533v1.6h-2.667c-0.295 0-0.533 0.238-0.533 0.533v27.2c0 0.295 0.238 0.533 0.533 0.533h14.933c0.295 0 0.533-0.238 0.533-0.533s-0.238-0.533-0.533-0.533zM22.133 2.667v-1.6h2.667v3.2h-2.667v-1.6zM5.6 2.667v-1.6h2.667v3.2h-2.667v-1.6zM2.4 3.2h2.133v1.6c0 0.295 0.238 0.533 0.533 0.533h3.733c0.295 0 0.533-0.238 0.533-0.533v-1.6h11.733v1.6c0 0.295 0.238 0.533 0.533 0.533h3.733c0.295 0 0.533-0.238 0.533-0.533v-1.6h2.133v4.267h-25.6v-4.267z"></path>
</symbol>
<symbol id="add-to-favorite" viewBox="0 0 32 32">
<path d="M19.2 2h-12.8c-0.705 0-1.276 0.571-1.276 1.276v0 19.492c0 0.001 0 0.002 0 0.003 0 0.321 0.184 0.599 0.451 0.735l0.005 0.002c0.109 0.060 0.24 0.095 0.379 0.095 0.185 0 0.356-0.063 0.491-0.169l-0.002 0.001 6.316-4.636c0.010-0.008 0.022-0.012 0.036-0.012s0.026 0.005 0.036 0.012l-0-0 6.332 4.636c0.136 0.101 0.307 0.161 0.492 0.161 0.458 0 0.83-0.371 0.832-0.829v-19.492c0-0 0-0 0-0 0-0.705-0.571-1.276-1.276-1.276-0.006 0-0.011 0-0.017 0h0.001zM12.8 14.556c-0.001 0-0.002 0-0.003 0-0.057 0-0.111-0.013-0.159-0.037l0.002 0.001c-0.048-0.024-1.148-0.54-3.336-2.464-1.248-1.1-1.42-2.244-1.344-3.012 0.103-1.046 0.754-1.92 1.658-2.337l0.018-0.007c1.308-0.58 2.504 0.208 3.164 0.924 0.66-0.716 1.856-1.5 3.164-0.924 0.922 0.424 1.573 1.298 1.675 2.332l0.001 0.012c0.003 0.046 0.005 0.1 0.005 0.154s-0.002 0.108-0.005 0.161l0-0.007c-0.028 1.097-0.551 2.067-1.352 2.698l-0.008 0.006c-2.188 1.924-3.288 2.44-3.336 2.464-0.042 0.021-0.091 0.034-0.143 0.036l-0.001 0z"></path>
<path d="M16.872 9.12c-0.074-0.758-0.539-1.393-1.187-1.707l-0.013-0.005c-1.376-0.608-2.524 1.028-2.536 1.048-0.074 0.095-0.188 0.155-0.316 0.155s-0.242-0.060-0.315-0.154l-0.001-0.001c-0.044-0.056-0.836-1.2-1.9-1.2-0.231 0.002-0.449 0.053-0.646 0.144l0.010-0.004c-0.67 0.314-1.142 0.95-1.219 1.703l-0.001 0.009c-0.088 0.852 0.28 1.648 1.088 2.356 0.878 0.825 1.848 1.573 2.886 2.222l0.078 0.046c1.125-0.692 2.101-1.437 2.996-2.267l-0.012 0.011c0.808-0.708 1.176-1.504 1.088-2.356z"></path>
</symbol>
<symbol id="add-to-watch" viewBox="0 0 26 32">
<path d="M19.2 1.333h-12.8c-1.619 0.002-2.932 1.314-2.933 2.933v16.314c-0 0.005-0 0.011-0 0.017 0 0.894 0.495 1.672 1.225 2.075l0.012 0.006c0.335 0.192 0.736 0.305 1.164 0.305 0.472 0 0.911-0.138 1.281-0.375l-0.009 0.006 5.52-3.449c0.040-0.025 0.090-0.040 0.142-0.040s0.1 0.015 0.142 0.040l-0.001-0.001 5.52 3.45c0.361 0.229 0.801 0.365 1.272 0.365 1.325 0 2.399-1.074 2.4-2.399v0-16.314c-0.002-1.619-1.314-2.932-2.933-2.933h-0zM16 11.2h-2.133v2.133c0 0.589-0.478 1.067-1.067 1.067s-1.067-0.478-1.067-1.067v0-2.133h-2.133c-0.589 0-1.067-0.478-1.067-1.067s0.478-1.067 1.067-1.067v0h2.133v-2.133c0-0.589 0.478-1.067 1.067-1.067s1.067 0.478 1.067 1.067v0 2.133h2.133c0.589 0 1.067 0.478 1.067 1.067s-0.478 1.067-1.067 1.067v0z"></path>
</symbol>
<symbol id="eye" viewBox="0 0 32 32">
<path d="M16 6c-6.979 0-13.028 4.064-16 10 2.972 5.936 9.021 10 16 10s13.027-4.064 16-10c-2.972-5.936-9.021-10-16-10zM23.889 11.303c1.88 1.199 3.473 2.805 4.67 4.697-1.197 1.891-2.79 3.498-4.67 4.697-2.362 1.507-5.090 2.303-7.889 2.303s-5.527-0.796-7.889-2.303c-1.88-1.199-3.473-2.805-4.67-4.697 1.197-1.891 2.79-3.498 4.67-4.697 0.122-0.078 0.246-0.154 0.371-0.228-0.311 0.854-0.482 1.776-0.482 2.737 0 4.418 3.582 8 8 8s8-3.582 8-8c0-0.962-0.17-1.883-0.482-2.737 0.124 0.074 0.248 0.15 0.371 0.228v0zM16 13c0 1.657-1.343 3-3 3s-3-1.343-3-3 1.343-3 3-3 3 1.343 3 3z"></path>
</symbol>
</defs>
</svg>
